PathFileType	4	(X/Y/Z)	C:\Users\WrightLab\Desktop\Jo\P5V32.trc
DataRate	CameraRate	NumFrames	NumMarkers	Units	OrigDataRate	OrigDataStartFrame	OrigNumFrames
100.00	100.00	      28	19	mm	100.00	826	      1100
Frame#	Time	Headset_Front			Headset_Back			Headset_Left			Headset_Right			Left_Shoulder			Right_Shoulder			Sternum			C7			Left Elbow			Right Elbow			Left Wrist			Right Wrist			Left ASIS			Right ASIS			S2			Left Knee			Right Knee			Left Ankle			Right Ankle			
		X1	Y1	Z1	X2	Y2	Z2	X3	Y3	Z3	X4	Y4	Z4	X5	Y5	Z5	X6	Y6	Z6	X7	Y7	Z7	X8	Y8	Z8	X9	Y9	Z9	X10	Y10	Z10	X11	Y11	Z11	X12	Y12	Z12	X13	Y13	Z13	X14	Y14	Z14	X15	Y15	Z15	X16	Y16	Z16	X17	Y17	Z17	X18	Y18	Z18	X19	Y19	Z19	

826	8.250	-1244.14124	147.85052	785.92090										-1421.49268	1486.67578	366.34277	-1080.28381	924.87457	250.51045										-883.58032	1196.57654	376.64948				-922.42853	1064.43127	185.14616							-1182.69531	970.59741	579.98419				-1130.40027	511.43610	230.58115				-1193.85901	86.15038	251.43361	
827	8.260	-1246.74670	151.49776	780.26807										-1422.05896	1485.51318	356.52121	-1081.92993	923.89716	239.03728										-885.44141	1193.86719	368.81607				-923.54364	1062.65210	177.05724							-1186.60986	968.51111	571.21924				-1131.69031	508.60016	221.24791				-1197.42627	85.80437	249.52914	
828	8.270	-1249.37305	155.72639	776.33783										-1422.49683	1484.25830	346.64908	-1083.55017	922.73517	228.30721										-886.55945	1191.54480	361.50687				-923.85107	1059.95349	168.93898							-1192.01001	967.81018	563.50366				-1134.19080	505.26932	211.91203				-1200.29419	85.56767	249.81223	
829	8.280	-1252.57776	160.35477	772.08508										-1422.85669	1483.12915	337.69553	-1085.34973	921.29346	218.43127										-887.71417	1188.62280	353.48941				-924.09271	1057.86047	161.23543							-1192.89490	962.84937	551.23126				-1136.85388	501.20248	203.06770				-1201.58972	85.36831	248.53001	
830	8.290	-1256.26172	164.97031	762.05603										-1423.17468	1482.62341	328.51108	-1086.35498	919.73309	207.82147										-889.11963	1186.29919	345.11960				-924.08862	1055.61694	152.80670							-1196.87756	961.09772	541.43622				-1139.64807	498.62128	193.95630				-1201.65125	85.23040	247.71457	
831	8.300	-1260.56689	171.24080	755.66132										-1423.18604	1482.63013	317.91818	-1087.87646	919.37341	195.87961										-890.87292	1184.09338	337.01547				-925.20569	1053.31421	144.88881							-1199.83716	958.43866	530.57678				-1142.99890	498.40710	184.98669				-1202.06238	85.84800	245.28500	
832	8.310	-1264.63013	177.43098	744.41492										-1423.80957	1482.65149	308.66962	-1089.69373	919.77490	185.01775										-892.55963	1183.20288	328.67151				-925.18024	1050.40356	136.42175							-1203.33289	957.06683	519.61871				-1145.45520	498.30783	177.37003				-1202.14001	86.37339	244.89053	
833	8.320	-1270.17004	183.60588	730.85193										-1424.63416	1482.53198	300.54889	-1091.36462	919.08234	175.27614										-895.09229	1182.22266	319.68976				-925.74512	1048.05359	127.48783							-1206.55188	955.98853	509.53256				-1146.52563	499.34070	168.45364				-1202.02747	86.44766	244.08145	
834	8.330	-1276.25317	191.31900	715.72388										-1424.83752	1483.10510	289.24133	-1092.63806	919.70313	165.44504										-897.76898	1181.78186	310.85797				-927.14777	1046.56067	119.89165							-1209.89783	955.06427	498.91165				-1147.84033	501.19806	158.73122				-1202.17957	87.14388	243.58931	
835	8.340	-1282.40906	197.83806	701.70551										-1425.36011	1483.25183	279.95206	-1093.11401	920.48035	155.28308										-899.09229	1180.99402	302.74161				-928.33105	1045.33081	111.86005							-1213.49438	954.89435	488.36938				-1148.82898	501.84726	150.65817				-1202.25732	86.99863	243.51595	
836	8.350	-1289.33362	205.48346	686.16803										-1425.51892	1483.72083	269.66489	-1094.47131	920.09076	146.46275										-900.69299	1180.34668	293.58380				-929.20068	1043.73376	103.50137							-1218.74426	956.65356	479.57565				-1149.07800	502.46576	141.79710				-1202.53394	86.70624	242.32202	
837	8.360	-1295.76355	214.34483	670.04688										-1425.95215	1484.35742	258.28329	-1095.16699	920.35010	137.10129										-901.48358	1179.87537	285.22577				-930.25281	1043.34741	95.16021							-1220.41858	952.59595	463.28610				-1148.15063	502.19598	132.43269				-1202.54260	86.66683	242.30099	
838	8.370	-1303.02161	221.81747	651.86310										-1426.34570	1484.69885	249.77100	-1095.64539	921.13989	127.92921										-902.85156	1179.14905	276.88281				-931.68500	1042.48877	86.65105							-1222.84180	952.43463	452.92923				-1146.69165	501.77753	125.05250				-1202.42517	87.02748	241.58672	
839	8.380	-1310.53992	232.14650	632.71814										-1426.80090	1485.35144	239.38274	-1095.99170	920.73273	120.64618										-903.45227	1178.72046	269.56015				-932.07263	1041.78955	78.06030							-1225.97632	952.71619	441.67386				-1144.82068	501.52386	118.02508				-1202.69568	87.20071	241.20889	
840	8.390	-1317.44910	239.61055	612.13422										-1427.15369	1486.06543	230.70108	-1096.31323	921.17249	112.53468										-904.55841	1178.80457	260.85013				-932.91431	1041.48596	70.60854							-1226.15442	952.29175	433.28217				-1141.30481	501.50333	111.57708				-1202.81958	87.63958	240.88368	
841	8.400	-1324.27905	246.84569	595.37976										-1427.52209	1487.00415	220.48143	-1096.30432	921.61859	103.78938										-905.08948	1178.71753	252.95970				-933.88361	1041.06079	62.72206							-1230.54553	952.86456	420.35101				-1138.63306	500.90512	105.39498				-1202.89001	87.85987	240.14969	
842	8.410													-1427.71411	1488.08044	209.48601	-1095.87585	921.56940	96.48180										-906.59998	1178.07092	244.40479				-933.88007	1041.10352	54.12088							-1233.07043	951.31061	410.13596				-1135.02332	500.11057	100.91044				-1202.90845	87.91038	240.13901	
843	8.420													-1428.55286	1488.88354	201.45874	-1096.20435	922.20197	87.72620										-907.25439	1178.63464	236.00827				-934.63641	1041.14673	45.73678							-1234.66699	952.54871	399.13550				-1130.90857	499.58133	95.57650				-1202.60986	88.20811	239.73109	
844	8.430													-1429.13611	1490.02075	191.84831	-1095.22473	923.34784	79.60608										-908.24780	1178.90417	227.19368				-935.30743	1041.10010	37.55261							-1237.91833	950.72888	387.28415				-1126.62427	497.01169	92.26284				-1202.25708	88.78633	239.35548	
845	8.440													-1429.37231	1491.11914	182.04082	-1094.17346	923.10107	71.51350										-909.11005	1178.97473	219.71745				-936.21942	1041.13403	29.09677							-1239.69617	953.42090	377.85947				-1121.93958	494.76364	88.82726				-1202.41931	88.98069	239.35158	
846	8.450													-1429.70935	1492.36853	171.01445	-1093.30688	922.99146	63.39943										-909.84100	1178.98499	211.03645				-936.62695	1041.79541	20.62220							-1242.88696	953.07117	367.40948				-1117.05627	491.65366	85.58326				-1202.61047	89.36563	238.47627	
847	8.460													-1430.07349	1493.40369	162.07736	-1092.76355	924.37451	55.23401										-910.28076	1180.08264	202.69540				-937.22235	1041.81030	12.99964							-1245.86267	953.63605	355.65894				-1112.05627	489.14972	81.99203				-1202.85706	89.56345	238.42519	
848	8.470													-1430.53357	1494.31226	152.04240	-1092.20410	924.80316	46.40246										-911.32031	1180.24414	194.34032				-937.47705	1042.52722	5.13894													-1106.61914	485.36621	80.89738				-1202.96228	89.93579	237.71616	
849	8.480													-1430.50586	1495.35413	141.98543	-1090.86682	925.74127	38.72079										-912.03479	1180.77356	186.76378				-938.02673	1043.32117	-3.41542													-1100.80994	482.24033	78.82273				-1203.02271	90.29135	237.84505	
850	8.490													-1430.61145	1496.20569	132.09715	-1090.09851	926.98920	30.88738										-912.72638	1181.39294	178.68509				-937.99377	1044.16907	-11.46230													-1094.98962	479.36835	76.01873				-1203.07959	90.78799	237.71342	
851	8.500													-1430.44995	1497.10376	121.21447	-1089.33923	927.32166	23.80400										-913.29907	1181.86743	170.89915				-939.06274	1044.83875	-19.83099													-1089.06836	477.09680	74.10165				-1203.56799	92.09525	236.95911	
852	8.510													-1430.59131	1497.59888	112.35768	-1088.13416	927.97809	16.65559										-914.04352	1182.33740	163.00142				-938.33173	1045.18750	-27.40534													-1084.59229	476.01755	71.26379				-1203.44653	92.31171	236.45345	
853	8.520													-1430.22632	1498.57739	100.88165	-1087.68665	929.56702	9.47976										-913.88544	1182.84009	155.95111				-938.25354	1045.87097	-35.81246													-1081.56909	476.31161	68.84973				-1203.69202	93.15144	236.29044	
